<svg id="visual" viewBox="0 0 960 540" width="960" height="540" xmlns="http://www.w3.org/2000/svg" xmlns:xlink="http://www.w3.org/1999/xlink" version="1.1"><rect x="0" y="0" width="960" height="540" fill="#f3e5d3"></rect><path d="M0 313L40 302.2C80 291.3 160 269.7 240 307C320 344.3 400 440.7 480 485C560 529.3 640 521.7 720 505.2C800 488.7 880 463.3 920 450.7L960 438L960 0L920 0C880 0 800 0 720 0C640 0 560 0 480 0C400 0 320 0 240 0C160 0 80 0 40 0L0 0Z" fill="#ffb968"></path><path d="M0 151L40 185.5C80 220 160 289 240 284.3C320 279.7 400 201.3 480 191.8C560 182.3 640 241.7 720 242.3C800 243 880 185 920 156L960 127L960 0L920 0C880 0 800 0 720 0C640 0 560 0 480 0C400 0 320 0 240 0C160 0 80 0 40 0L0 0Z" fill="#c38037"></path><path d="M0 219L40 186C80 153 160 87 240 76.3C320 65.7 400 110.3 480 142C560 173.7 640 192.3 720 178C800 163.7 880 116.3 920 92.7L960 69L960 0L920 0C880 0 800 0 720 0C640 0 560 0 480 0C400 0 320 0 240 0C160 0 80 0 40 0L0 0Z" fill="#884a04"></path></svg>